<?xml version="1.0" encoding="utf-8"?>
<!-- Generator: Adobe Illustrator 22.1.0, SVG Export Plug-In . SVG Version: 6.00 Build 0)  -->
<svg version="1.1" id="Layer_1" xmlns="http://www.w3.org/2000/svg" xmlns:xlink="http://www.w3.org/1999/xlink" x="0px" y="0px"
	 viewBox="0 0 16 16" style="enable-background:new 0 0 16 16;" xml:space="preserve">
<style type="text/css">
	.st0{fill:#F6F6F6;}
</style>
<g>
	<g>
		<path class="st0" d="M14.5,4h-1.6h-2.5H8.9V2.8c0-0.6-0.5-1.1-1.1-1.1H2.1C1.5,1.7,1,2.2,1,2.8v11c0,0.3,0.2,0.5,0.5,0.5h13
			c0.3,0,0.5-0.2,0.5-0.5V4.5C15,4.3,14.8,4,14.5,4z M14,13.3H2V2.8c0-0.1,0-0.1,0.1-0.1h5.7c0.1,0,0.1,0,0.1,0.1v1.7
			C7.9,4.8,8.1,5,8.4,5h1.7h3H14V13.3z"/>
		<path class="st0" d="M7.4,9.2H5.8c-0.2,0-0.2,0-0.2,0.2V10c0,0.2,0.1,0.2,0.2,0.2h0.7l0,0.7H6.4c-0.5,0-1-0.1-1.3-0.4
			C4.7,10.4,4.5,10,4.5,9.4c0-0.7,0.2-1.1,0.6-1.4c0.4-0.3,0.9-0.3,1.5-0.3c0.1,0,0.2,0,0.2-0.2l0-0.8c0-0.1-0.1-0.2-0.2-0.2
			C5.8,6.6,4.9,6.7,4.3,7.2C3.6,7.6,3.2,8.3,3.2,9.3c0,1,0.3,1.7,0.9,2.1c0.5,0.5,1.2,0.7,1.9,0.7c0.5,0,1,0,1.4-0.1
			c0.2,0,0.2-0.1,0.2-0.3l0.1-2.3C7.7,9.2,7.6,9.2,7.4,9.2z"/>
		<path class="st0" d="M12.4,6.6H8.7c-0.2,0-0.3,0.1-0.3,0.3v0.6c0,0.2,0.1,0.3,0.3,0.3h2.2l-2.3,3.8c-0.2,0.3-0.1,0.6,0.3,0.6h3.5
			c0.2,0,0.3-0.1,0.3-0.3v-0.6c0-0.2-0.1-0.3-0.3-0.3h-2l2.3-3.8C12.9,6.9,12.8,6.6,12.4,6.6z"/>
	</g>
</g>
</svg>
